<svg xmlns="http://www.w3.org/2000/svg" viewBox="0 0 56 56" fill="none">
  <rect x="2" y="2" width="52" height="52" rx="16" fill="#F4F1EA"/>
  <rect x="2" y="2" width="52" height="52" rx="16" stroke="#0B0C10" stroke-opacity="0.08"/>
  <path
    d="M37 15.5c-1.9-1.95-4.82-2.92-8.76-2.92-5.64 0-9.22 2.53-9.22 6.54 0 3.55 2.36 5.2 6.9 6.08l4.2.82c2.03.4 2.98 1.14 2.98 2.46 0 2.02-2.03 3.34-5.22 3.34-3.28 0-6.14-1.02-8.4-3.04"
    stroke="#07080B"
    stroke-width="4.5"
    stroke-linecap="round"
    stroke-linejoin="round"
  />
  <path
    d="M37 15.5v16.92c0 7.34-4.28 11.42-11.7 11.42-2.9 0-5.44-.6-7.64-1.82"
    stroke="#07080B"
    stroke-width="4.5"
    stroke-linecap="round"
    stroke-linejoin="round"
  />
  <circle cx="39.75" cy="14.25" r="2.4" fill="#8FB1FF"/>
</svg>
